<?xml version="1.0" standalone="no"?>
<!DOCTYPE svg PUBLIC "-//W3C//DTD SVG 20010904//EN"
 "http://www.w3.org/TR/2001/REC-SVG-20010904/DTD/svg10.dtd">
<svg version="1.0" xmlns="http://www.w3.org/2000/svg"
 width="1280.000000pt" height="848.000000pt" viewBox="0 0 1280.000000 848.000000"
 preserveAspectRatio="xMidYMid meet">
<metadata>
Created by potrace 1.15, written by Peter Selinger 2001-2017
</metadata>
<g transform="translate(0.000000,848.000000) scale(0.100000,-0.100000)"
fill="#000000" stroke="none">
<path d="M10620 7459 c-8 -5 -95 -43 -192 -84 -97 -41 -219 -95 -270 -121 -51
-26 -187 -91 -303 -144 -115 -54 -307 -143 -425 -198 -118 -55 -305 -143 -415
-196 -110 -54 -261 -124 -335 -156 -74 -32 -148 -65 -165 -74 -16 -9 -34 -16
-39 -16 -5 0 -34 -11 -65 -24 -100 -44 -500 -199 -711 -276 -232 -85 -288
-111 -421 -193 -19 -12 -50 -31 -67 -42 -18 -10 -32 -23 -32 -28 0 -4 -4 -6
-9 -3 -5 4 -33 -14 -63 -37 -53 -44 -97 -72 -103 -65 -1 2 -43 57 -92 123 -89
117 -137 165 -238 235 -53 37 -59 41 -145 93 -148 89 -439 173 -1011 291 -173
36 -343 74 -379 85 -36 11 -130 38 -210 61 -253 72 -344 107 -820 310 -256
108 -537 228 -625 265 -230 97 -273 121 -281 150 -15 59 -25 51 -196 -132 -90
-98 -424 -461 -743 -807 -623 -678 -1372 -1480 -1679 -1799 -105 -109 -192
-202 -194 -207 -10 -28 71 -79 333 -209 154 -76 559 -284 900 -461 636 -330
2310 -1167 2855 -1428 168 -80 553 -250 855 -377 l550 -231 5 -75 c6 -72 8
-78 52 -130 25 -30 73 -107 107 -171 101 -190 112 -201 304 -292 l165 -78 331
126 c323 123 341 131 800 371 365 191 1549 773 2051 1008 36 16 184 92 330
167 452 234 609 311 1130 553 1002 466 1250 594 1250 643 0 23 -124 343 -280
724 -192 470 -407 1025 -749 1935 -187 496 -258 674 -275 686 -31 24 -70 14
-87 -22 l-14 -29 -40 20 c-21 11 -43 20 -48 20 -10 0 -184 139 -214 171 -11
13 -23 32 -25 43 -4 23 -37 37 -58 25z"/>
</g>
</svg>
